<?xml version="1.0" encoding="utf-8"?>
<!-- Generator: Adobe Illustrator 27.3.1, SVG Export Plug-In . SVG Version: 6.00 Build 0)  -->
<svg version="1.1" id="a" xmlns="http://www.w3.org/2000/svg" xmlns:xlink="http://www.w3.org/1999/xlink" x="0px" y="0px"
	 viewBox="0 0 31.7 8.5" style="enable-background:new 0 0 31.7 8.5;" xml:space="preserve">
<style type="text/css">
	.st0{fill:#83D1DC;}
</style>
<path class="st0" d="M31.4,3.4c-0.9,0-1.8-0.5-2.3-1.3c-0.5,0.8-1.3,1.3-2.2,1.3s-1.7-0.5-2.2-1.3c-0.5,0.8-1.3,1.3-2.2,1.3
	s-1.7-0.5-2.2-1.3c-0.5,0.8-1.3,1.3-2.2,1.3s-1.7-0.5-2.2-1.3c-0.5,0.8-1.3,1.3-2.2,1.3S12,2.9,11.5,2.1C11,2.9,10.2,3.4,9.3,3.4
	S7.8,3,7.3,2.2C6.8,3,6,3.5,5.1,3.5S3.4,3,2.9,2.2C2.4,3,1.5,3.5,0.6,3.5C0.3,3.5,0,3.2,0,2.9s0.3-0.6,0.6-0.6
	c0.9,0,1.6-0.8,1.6-1.7C2.2,0.2,2.5,0,2.8,0H3c0.3,0,0.6,0.3,0.6,0.6c0,0.9,0.7,1.7,1.5,1.7s1.5-0.8,1.5-1.7C6.6,0.2,6.9,0,7.2,0
	h0.1c0.4,0,0.6,0.3,0.6,0.6c0,0.9,0.7,1.7,1.5,1.7s1.5-0.8,1.5-1.7c0-0.4,0.3-0.6,0.6-0.6h0.1c0.4,0,0.6,0.3,0.6,0.6
	c0,0.9,0.7,1.7,1.5,1.7s1.5-0.8,1.5-1.7c0-0.4,0.3-0.6,0.6-0.6h0.1c0.4,0,0.6,0.3,0.6,0.6c0,0.9,0.7,1.7,1.5,1.7s1.5-0.8,1.5-1.7
	c0-0.4,0.3-0.6,0.6-0.6h0.1c0.4,0,0.6,0.3,0.6,0.6c0,0.9,0.7,1.7,1.5,1.7s1.5-0.8,1.5-1.7c0-0.4,0.3-0.6,0.6-0.6h0.1
	c0.4,0,0.6,0.3,0.6,0.6c0,0.9,0.7,1.7,1.5,1.7s1.5-0.8,1.5-1.7c0-0.4,0.3-0.6,0.6-0.6h0.2c0.3,0,0.6,0.3,0.6,0.6
	c0,0.9,0.7,1.7,1.6,1.7c0.3,0,0.6,0.3,0.6,0.6S31.7,3.4,31.4,3.4z M27.7,8c0-0.4-0.3-0.6-0.6-0.6c-0.9,0-1.6-0.8-1.6-1.7
	c0-0.4-0.3-0.6-0.6-0.6h-0.2c-0.3,0-0.6,0.3-0.6,0.6c0,0.9-0.7,1.7-1.5,1.7s-1.5-0.8-1.5-1.7c0-0.3-0.2-0.6-0.6-0.6h-0.1
	c-0.3,0-0.6,0.3-0.6,0.6c0,0.9-0.7,1.7-1.5,1.7s-1.5-0.8-1.5-1.7c0-0.3-0.2-0.6-0.6-0.6h-0.1c-0.3,0-0.6,0.3-0.6,0.6
	c0,0.9-0.7,1.7-1.5,1.7s-1.5-0.8-1.5-1.7c0-0.3-0.2-0.6-0.6-0.6h-0.1c-0.3,0-0.6,0.3-0.6,0.6c0,0.9-0.7,1.7-1.5,1.7S8,6.5,8,5.6
	C8,5.2,7.7,5,7.4,5H7.2C6.9,5,6.6,5.3,6.6,5.6c0,0.9-0.7,1.7-1.6,1.7c-0.3,0-0.6,0.3-0.6,0.6c0,0.4,0.3,0.6,0.6,0.6
	c0.9,0,1.8-0.5,2.3-1.3C7.8,8,8.6,8.5,9.5,8.5s1.7-0.5,2.2-1.3C12.2,8,13,8.5,13.9,8.5s1.7-0.5,2.2-1.3c0.5,0.8,1.3,1.3,2.2,1.3
	S20,8,20.5,7.2C21,8,21.8,8.5,22.7,8.5s1.7-0.5,2.2-1.3c0.5,0.8,1.4,1.3,2.3,1.3C27.4,8.6,27.7,8.3,27.7,8z"/>
</svg>
